<svg xmlns="http://www.w3.org/2000/svg" xmlns:xlink="http://www.w3.org/1999/xlink" xml:space="preserve" version="1.1" style="shape-rendering:geometricPrecision;text-rendering:geometricPrecision;image-rendering:optimizeQuality;" viewBox="0 0 413.78 413.79" x="0px" y="0px" fill-rule="evenodd" clip-rule="evenodd" aria-hidden="true" width="413px" height="413px"><defs><linearGradient class="cerosgradient" data-cerosgradient="true" id="CerosGradient_id4a3be7527" gradientUnits="userSpaceOnUse" x1="50%" y1="100%" x2="50%" y2="0%"><stop offset="0%" stop-color="#d1d1d1"/><stop offset="100%" stop-color="#d1d1d1"/></linearGradient><linearGradient/><style type="text/css">
   
    .fil0-id4a3be7527{fill:black}
   
  </style></defs><g><path class="fil0-id4a3be7527" d="M164.13 83.12l3.09 6.44c1.5,3.14 3.94,5.29 7.24,6.39 3.3,1.1 6.55,0.84 9.63,-0.77 6,-3.13 9.94,-9.13 10.32,-16.2l1.88 -34.71c0.25,-4.57 -1.82,-8.61 -5.67,-11.08 -5.39,-3.46 -8.81,-8.6 -8.81,-14.34 0,-10.41 11.23,-18.85 25.08,-18.85 13.85,0 25.08,8.44 25.08,18.85 0,5.74 -3.42,10.88 -8.81,14.34 -3.85,2.47 -5.92,6.51 -5.67,11.08l1.88 34.71c0.38,7.07 4.32,13.07 10.32,16.2 3.08,1.61 6.33,1.87 9.63,0.77 3.3,-1.1 5.74,-3.25 7.24,-6.39l3.09 -6.44c1.85,-3.87 1.65,-8.06 -0.57,-11.73 -2.18,-3.61 -2.79,-7.64 -1.31,-11.21 2.92,-7.04 12.88,-9.61 22.26,-5.72 9.38,3.88 14.61,12.74 11.69,19.79 -1.47,3.56 -4.75,5.98 -8.85,6.99 -4.16,1.03 -7.27,3.85 -8.69,7.9l-2.37 6.73c-1.16,3.29 -0.96,6.53 0.6,9.64 1.56,3.11 4.03,5.22 7.35,6.27 6.46,2.03 13.49,0.57 18.76,-4.16l25.87 -23.21c3.4,-3.06 4.8,-7.38 3.82,-11.85 -1.37,-6.25 -0.15,-12.31 3.91,-16.37 7.36,-7.36 21.27,-5.38 31.06,4.41 9.8,9.8 11.77,23.7 4.41,31.06 -4.06,4.06 -10.11,5.28 -16.37,3.91 -4.46,-0.97 -8.79,0.42 -11.84,3.82l-23.21 25.87c-4.73,5.27 -6.19,12.31 -4.16,18.77 1.04,3.31 3.15,5.79 6.26,7.34 3.11,1.56 6.36,1.76 9.64,0.61l6.74 -2.38c4.04,-1.42 6.86,-4.52 7.89,-8.68 1.02,-4.1 3.43,-7.38 7,-8.86 7.04,-2.92 15.9,2.32 19.79,11.69 3.88,9.38 1.32,19.35 -5.73,22.26 -3.56,1.48 -7.59,0.87 -11.21,-1.31 -3.67,-2.21 -7.85,-2.42 -11.72,-0.56l-6.45 3.08c-3.13,1.51 -5.29,3.95 -6.39,7.25 -1.1,3.3 -0.84,6.54 0.77,9.62 3.13,6.01 9.14,9.95 16.21,10.33l34.71 1.88c4.56,0.24 8.61,-1.83 11.07,-5.68 3.46,-5.39 8.6,-8.81 14.34,-8.81 10.41,0 18.85,11.23 18.85,25.09 0,13.85 -8.44,25.08 -18.85,25.08 -5.74,0 -10.88,-3.42 -14.34,-8.81 -2.46,-3.85 -6.51,-5.92 -11.07,-5.68l-34.71 1.88c-7.07,0.38 -13.08,4.32 -16.21,10.33 -1.61,3.08 -1.87,6.32 -0.77,9.62 1.1,3.3 3.26,5.74 6.39,7.24l6.45 3.09c3.87,1.86 8.05,1.65 11.72,-0.56 3.62,-2.18 7.65,-2.79 11.21,-1.31 7.05,2.91 9.61,12.88 5.73,22.26 -3.89,9.37 -12.75,14.61 -19.79,11.69 -3.57,-1.48 -5.98,-4.76 -7,-8.85 -1.03,-4.17 -3.85,-7.27 -7.89,-8.69l-6.74 -2.38c-3.28,-1.15 -6.53,-0.95 -9.64,0.61 -3.11,1.55 -5.22,4.03 -6.26,7.34 -2.03,6.46 -0.57,13.5 4.16,18.77l23.21 25.87c3.05,3.4 7.38,4.79 11.84,3.82 6.26,-1.37 12.31,-0.15 16.37,3.91 7.36,7.36 5.39,21.26 -4.41,31.06 -9.79,9.79 -23.7,11.77 -31.06,4.41 -4.06,-4.06 -5.28,-10.12 -3.91,-16.37 0.98,-4.47 -0.42,-8.79 -3.82,-11.85l-25.87 -23.21c-5.27,-4.73 -12.3,-6.19 -18.76,-4.16 -3.32,1.05 -5.79,3.16 -7.35,6.27 -1.56,3.11 -1.76,6.35 -0.6,9.64l2.37 6.73c1.43,4.05 4.53,6.87 8.69,7.9 4.1,1.01 7.38,3.43 8.85,6.99 2.92,7.05 -2.31,15.91 -11.69,19.79 -9.38,3.89 -19.34,1.32 -22.26,-5.72 -1.48,-3.57 -0.86,-7.6 1.31,-11.21 2.22,-3.67 2.42,-7.86 0.57,-11.73l-3.09 -6.44c-1.5,-3.14 -3.94,-5.29 -7.24,-6.39 -3.3,-1.1 -6.55,-0.84 -9.63,0.77 -6,3.13 -9.94,9.13 -10.32,16.21l-1.88 34.7c-0.25,4.57 1.82,8.61 5.67,11.08 5.39,3.46 8.81,8.6 8.81,14.34 0,10.41 -11.23,18.85 -25.08,18.85 -13.85,0 -25.08,-8.44 -25.08,-18.85 0,-5.74 3.42,-10.88 8.81,-14.34 3.85,-2.47 5.92,-6.51 5.67,-11.08l-1.88 -34.71c-0.38,-7.07 -4.32,-13.07 -10.32,-16.2 -3.08,-1.61 -6.33,-1.87 -9.63,-0.77 -3.3,1.1 -5.74,3.25 -7.24,6.39l-3.09 6.44c-1.85,3.87 -1.65,8.06 0.57,11.73 2.17,3.61 2.79,7.64 1.31,11.21 -2.92,7.04 -12.89,9.61 -22.26,5.72 -9.38,-3.88 -14.61,-12.74 -11.7,-19.79 1.48,-3.56 4.76,-5.98 8.86,-6.99 4.16,-1.03 7.26,-3.85 8.69,-7.9l2.37 -6.73c1.16,-3.29 0.96,-6.53 -0.6,-9.64 -1.56,-3.11 -4.03,-5.22 -7.35,-6.27 -6.46,-2.03 -13.49,-0.57 -18.76,4.16l-25.87 23.21c-3.4,3.06 -4.8,7.38 -3.82,11.85 1.37,6.25 0.15,12.31 -3.91,16.37 -7.36,7.36 -21.27,5.38 -31.06,-4.41 -9.8,-9.8 -11.77,-23.7 -4.41,-31.06 4.06,-4.06 10.11,-5.28 16.37,-3.91 4.46,0.97 8.79,-0.42 11.84,-3.82l23.21 -25.87c4.73,-5.27 6.19,-12.31 4.16,-18.77 -1.04,-3.31 -3.15,-5.79 -6.26,-7.34 -3.11,-1.56 -6.36,-1.76 -9.64,-0.61l-6.74 2.38c-4.04,1.42 -6.86,4.52 -7.89,8.68 -1.02,4.1 -3.43,7.38 -7,8.86 -7.04,2.92 -15.9,-2.32 -19.79,-11.69 -3.88,-9.38 -1.32,-19.35 5.73,-22.26 3.56,-1.48 7.59,-0.87 11.21,1.31 3.67,2.21 7.85,2.42 11.72,0.56l6.45 -3.09c3.13,-1.5 5.29,-3.94 6.39,-7.24 1.09,-3.3 0.84,-6.54 -0.77,-9.62 -3.13,-6.01 -9.14,-9.95 -16.21,-10.33l-34.71 -1.88c-4.56,-0.24 -8.61,1.83 -11.07,5.68 -3.46,5.39 -8.6,8.81 -14.34,8.81 -10.41,0 -18.85,-11.23 -18.85,-25.08 0,-13.86 8.44,-25.09 18.85,-25.09 5.74,0 10.88,3.42 14.34,8.81 2.46,3.85 6.51,5.92 11.07,5.68l34.71 -1.88c7.07,-0.38 13.08,-4.32 16.21,-10.33 1.61,-3.08 1.86,-6.32 0.76,-9.62 -1.09,-3.3 -3.25,-5.74 -6.38,-7.24l-6.45 -3.09c-3.87,-1.86 -8.05,-1.65 -11.72,0.56 -3.62,2.18 -7.65,2.79 -11.21,1.31 -7.05,-2.91 -9.61,-12.88 -5.73,-22.26 3.89,-9.37 12.75,-14.61 19.79,-11.69 3.57,1.48 5.98,4.76 7,8.85 1.03,4.17 3.85,7.27 7.89,8.69l6.74 2.38c3.28,1.15 6.52,0.95 9.63,-0.61 3.12,-1.55 5.23,-4.03 6.27,-7.34 2.03,-6.46 0.57,-13.5 -4.16,-18.77l-23.21 -25.87c-3.05,-3.4 -7.38,-4.79 -11.84,-3.82 -6.26,1.37 -12.31,0.15 -16.37,-3.91 -7.36,-7.36 -5.39,-21.26 4.41,-31.06 9.79,-9.79 23.7,-11.77 31.06,-4.41 4.06,4.06 5.28,10.12 3.91,16.37 -0.98,4.47 0.42,8.79 3.82,11.85l25.87 23.21c5.27,4.73 12.3,6.19 18.76,4.15 3.32,-1.04 5.79,-3.15 7.35,-6.26 1.55,-3.11 1.76,-6.36 0.6,-9.64l-2.37 -6.73c-1.43,-4.05 -4.53,-6.87 -8.69,-7.9 -4.1,-1.01 -7.38,-3.43 -8.86,-6.99 -2.91,-7.05 2.32,-15.91 11.7,-19.79 9.37,-3.89 19.34,-1.32 22.26,5.72 1.48,3.57 0.86,7.6 -1.31,11.21 -2.22,3.67 -2.42,7.86 -0.57,11.73zm85.45 86.46c4.66,-4.66 12.22,-4.66 16.88,0 4.65,4.66 4.65,12.21 0,16.87 -4.66,4.66 -12.22,4.66 -16.88,0 -4.66,-4.66 -4.66,-12.21 0,-16.87zm-0.29 62.6c4.66,-4.66 12.22,-4.66 16.88,0 4.66,4.66 4.66,12.21 0,16.87 -4.66,4.66 -12.22,4.66 -16.88,0 -4.65,-4.66 -4.65,-12.21 0,-16.87zm-60.78 28.95c4.66,-4.66 12.22,-4.66 16.88,0 4.66,4.66 4.66,12.22 0,16.88 -4.66,4.65 -12.22,4.65 -16.88,0 -4.66,-4.66 -4.66,-12.22 0,-16.88zm10.11 -111.53c5.73,-5.73 14.12,-6.61 18.76,-1.97 4.64,4.63 3.76,13.03 -1.97,18.76 -5.72,5.72 -14.12,6.6 -18.76,1.97 -4.64,-4.64 -3.75,-13.04 1.97,-18.76zm8.15 54.54c4.27,-4.26 10.53,-4.92 13.98,-1.46 3.46,3.45 2.8,9.71 -1.47,13.98 -4.26,4.26 -10.52,4.92 -13.98,1.46 -3.45,-3.45 -2.79,-9.71 1.47,-13.98zm-61.78 18.07c7.41,-7.41 18.4,-8.44 24.54,-2.3 6.14,6.14 5.11,17.13 -2.3,24.54 -7.41,7.41 -18.4,8.44 -24.54,2.3 -6.14,-6.14 -5.11,-17.13 2.3,-24.54zm1.79 -75.42c6.14,-6.14 16.1,-6.14 22.24,0 6.15,6.14 6.15,16.1 0,22.24 -6.14,6.14 -16.1,6.14 -22.24,0 -6.14,-6.14 -6.14,-16.1 0,-22.24z"/></g></svg>